<svg version="1.1" id="Layer_1" xmlns="http://www.w3.org/2000/svg" xmlns:xlink="http://www.w3.org/1999/xlink" x="0px" y="0px"
   viewBox="0 0 378 378" enable-background="new 0 0 378 378" xml:space="preserve">
<g>
  <path fill="#FFFFFF" d="M120.3,376.6c-66.3,0-120-53.7-120.1-120l0,0V144.3c0-16,13-28.8,28.9-28.8l0,0c16,0,28.9,0,28.9,0v29.7
    v111.3c0.1,34.3,27.9,62.2,62.2,62.2l0,0h78.5c34.4-0.1,62.2-27.9,62.2-62.2l0,0V178c-0.1-34.3-27.9-62.2-62.2-62.2l0,0H92.7
    c-16,0-34.8,0-34.8,0V86.9c0-16,0-28.9,0-28.9h34.8h106.2c66.3,0,120,53.7,120,120l0,0v78.6c0,66.3-53.7,120-120,120l0,0H120.3
    L120.3,376.6z"/>
  <path fill="#FFFFFF" d="M0,28.9C0,12.9,12.9,0,28.8,0c15.8,0,28.7,12.8,28.8,28.6h0v29.1H28.6l0,0C12.8,57.5,0,44.7,0,28.9z"/>
</g>
</svg>
